<?xml version="1.0" encoding="UTF-8" standalone="no"?>
<svg
   width="35"
   height="35"
   viewBox="0 0 35 35"
   fill="none"
   version="1.1"
   id="svg124"
   sodipodi:docname="settings.svg"
   inkscape:version="1.2.2 (b0a84865, 2022-12-01)"
   xmlns:inkscape="http://www.inkscape.org/namespaces/inkscape"
   xmlns:sodipodi="http://sodipodi.sourceforge.net/DTD/sodipodi-0.dtd"
   xmlns="http://www.w3.org/2000/svg"
   xmlns:svg="http://www.w3.org/2000/svg">
  <defs
     id="defs128" />
  <sodipodi:namedview
     id="namedview126"
     pagecolor="#505050"
     bordercolor="#eeeeee"
     borderopacity="1"
     inkscape:showpageshadow="0"
     inkscape:pageopacity="0"
     inkscape:pagecheckerboard="0"
     inkscape:deskcolor="#505050"
     showgrid="false"
     inkscape:zoom="6.7428571"
     inkscape:cx="17.20339"
     inkscape:cy="17.20339"
     inkscape:window-width="1309"
     inkscape:window-height="430"
     inkscape:window-x="193"
     inkscape:window-y="492"
     inkscape:window-maximized="0"
     inkscape:current-layer="svg124" />
  <path
     fill-rule="evenodd"
     clip-rule="evenodd"
     d="M20.7733 1.89366C20.9173 2.17303 20.9531 2.53082 21.0246 3.24638C21.16 4.60079 21.2278 5.27802 21.5113 5.64958C21.8708 6.12091 22.4556 6.36313 23.0432 6.28409C23.5063 6.22179 24.033 5.79081 25.0865 4.92886C25.6431 4.4735 25.9213 4.24581 26.2207 4.15015C26.6011 4.02866 27.0126 4.04917 27.3789 4.20791C27.6673 4.3329 27.9216 4.58713 28.4301 5.09563L29.9044 6.56986C30.4127 7.07835 30.667 7.3326 30.7921 7.62104C30.9508 7.98739 30.9713 8.39885 30.8498 8.77916C30.7541 9.0786 30.5264 9.35689 30.071 9.91347C29.2091 10.967 28.7781 11.4937 28.7159 11.9569C28.6368 12.5444 28.8791 13.1292 29.3503 13.4887C29.7219 13.7722 30.399 13.8399 31.7535 13.9754C32.4691 14.0469 32.827 14.0827 33.1064 14.2267C33.4611 14.4099 33.7376 14.7153 33.8843 15.0865C34 15.3789 34 15.7385 34 16.4575V18.5426C34 19.2615 34 19.6211 33.8845 19.9133C33.7377 20.2847 33.4611 20.5903 33.1062 20.7733C32.8268 20.9173 32.4691 20.9531 31.7537 21.0246C30.3997 21.16 29.7227 21.2277 29.3511 21.511C28.8796 21.8707 28.6373 22.4556 28.7165 23.0433C28.7789 23.5063 29.2097 24.0328 30.0713 25.086C30.5266 25.6424 30.7541 25.9206 30.8498 26.2199C30.9714 26.6004 30.9508 27.0119 30.7921 27.3784C30.667 27.6668 30.4129 27.9209 29.9045 28.4293L28.4301 29.9037C27.9217 30.4121 27.6675 30.6663 27.379 30.7914C27.0126 30.9501 26.6012 30.9706 26.2209 30.8492C25.9214 30.7535 25.6431 30.5258 25.0865 30.0704C24.033 29.2084 23.5063 28.7774 23.0432 28.7152C22.4556 28.6362 21.8708 28.8784 21.5113 29.3496C21.2278 29.7212 21.1602 30.3985 21.0247 31.7532C20.9531 32.4691 20.9173 32.827 20.7731 33.1065C20.5901 33.4613 20.2847 33.7375 19.9136 33.8843C19.6212 34 19.2615 34 18.5421 34H16.4575C15.7385 34 15.3789 34 15.0865 33.8843C14.7153 33.7376 14.4099 33.4611 14.2267 33.1064C14.0827 32.827 14.0469 32.4691 13.9754 31.7535C13.8399 30.399 13.7722 29.7219 13.4887 29.3503C13.1292 28.8791 12.5444 28.6368 11.9569 28.7159C11.4938 28.7781 10.967 29.2091 9.91343 30.0712C9.35684 30.5266 9.07852 30.7543 8.77906 30.8498C8.39876 30.9714 7.98732 30.9508 7.62099 30.7921C7.33254 30.6672 7.07827 30.4129 6.56976 29.9044L5.09558 28.4301C4.58707 27.9217 4.3328 27.6675 4.20783 27.379C4.0491 27.0126 4.02858 26.6012 4.15006 26.2209C4.24573 25.9214 4.47343 25.6431 4.92882 25.0865C5.79079 24.033 6.22177 23.5063 6.28408 23.043C6.36311 22.4556 6.12089 21.8708 5.64957 21.5113C5.278 21.2278 4.60079 21.16 3.24636 21.0246C2.5308 20.9531 2.17303 20.9173 1.89366 20.7733C1.53882 20.5901 1.26238 20.2847 1.11558 19.9135C1 19.6211 1 19.2615 1 18.5425V16.4577C1 15.7385 1 15.3788 1.11563 15.0864C1.26243 14.7153 1.53879 14.4099 1.89351 14.2269C2.17295 14.0827 2.53082 14.0469 3.24656 13.9753C4.60134 13.8399 5.27876 13.7721 5.65039 13.4885C6.12152 13.129 6.36365 12.5445 6.28474 11.9571C6.22248 11.4938 5.79135 10.9669 4.92911 9.913C4.47351 9.35618 4.24573 9.07776 4.15008 8.77818C4.02869 8.39801 4.0492 7.98673 4.20781 7.62051C4.3328 7.33194 4.58715 7.07759 5.09584 6.5689L6.56982 5.09492C7.07834 4.58639 7.33262 4.33213 7.62107 4.20715C7.98739 4.04842 8.39883 4.02791 8.77914 4.14939C9.0786 4.24505 9.35694 4.47279 9.91363 4.92825C10.967 5.79012 11.4937 6.22105 11.9567 6.28342C12.5444 6.36255 13.1294 6.12026 13.489 5.64874C13.7723 5.27725 13.84 4.60022 13.9754 3.24616C14.0469 2.5308 14.0827 2.17312 14.2267 1.8938C14.4097 1.53886 14.7153 1.26232 15.0867 1.11552C15.3789 1 15.7385 1 16.4574 1H18.5425C19.2615 1 19.6211 1 19.9135 1.11558C20.2847 1.26238 20.5901 1.53882 20.7733 1.89366ZM17.5 24.1C21.145 24.1 24.1 21.145 24.1 17.5C24.1 13.8549 21.145 10.9 17.5 10.9C13.8549 10.9 10.9 13.8549 10.9 17.5C10.9 21.145 13.8549 24.1 17.5 24.1Z"
     fill="#0E0E0E"
     id="path122" />
  <path
     style="fill:#ffffff;stroke-width:0.148305"
     d="M 16.97369,0.04142115 C 15.561402,-0.01573066 13.682275,0.25962353 13.28576,1.8842277 12.893735,2.9695708 13.198731,4.2893715 12.532069,5.2587476 11.773411,5.6306229 11.234086,4.5906822 10.625067,4.3315112 9.7062888,3.5008943 8.3860323,2.7473289 7.1733896,3.4605485 5.7691919,4.4443311 4.5452446,5.7233166 3.5207974,7.0948921 2.7899317,8.1036433 3.3163222,9.3519852 4.0324052,10.203592 c 0.3930031,0.693086 1.1609117,1.270345 1.3178745,2.064888 -0.1881571,0.810477 -1.3677082,0.579165 -1.9722838,0.759774 -1.317898,0.03276 -2.91428428,0.561495 -3.16220042,2.046726 -0.2540148,1.672247 -0.30264705,3.430837 0.0680697,5.08785 0.42211361,1.552201 2.22261462,1.77261 3.57893832,1.864545 0.5197248,0.07795 1.6698655,0.125765 1.4550345,0.915017 -0.6950171,1.429001 -2.4883763,2.60774 -2.0670021,4.381082 0.5847769,1.485655 2.0029236,2.438233 3.074434,3.562798 0.7877823,0.948238 2.2246734,1.276278 3.2473599,0.506033 0.9222152,-0.511654 1.6575352,-1.363346 2.6393672,-1.751564 0.868897,0.12701 0.636391,1.368633 0.816257,1.981264 0.03097,1.355246 0.638764,3.057171 2.20488,3.201303 1.740731,0.162363 3.591462,0.337487 5.270913,-0.22912 1.613663,-0.783878 1.304216,-2.86646 1.683205,-4.329233 -0.04187,-0.553141 0.719007,-0.869005 1.06797,-0.41624 1.269388,0.7443 2.484813,2.398237 4.136322,1.871484 1.528489,-0.74409 2.630362,-2.139096 3.778304,-3.356852 0.957044,-0.974953 0.759246,-2.513565 -0.112967,-3.4675 -0.428881,-0.705593 -1.17017,-1.299944 -1.404553,-2.09336 0.061,-0.820427 1.201127,-0.656648 1.771851,-0.809298 1.593442,0.03384 3.475444,-0.778577 3.461407,-2.632714 0.05197,-1.686329 0.33407,-3.523513 -0.429854,-5.090745 -1.015333,-1.629836 -3.255678,-0.883811 -4.694204,-1.706667 -0.427739,-0.778354 0.673164,-1.355728 0.941101,-1.983001 C 31.56592,9.6158425 32.313796,8.1192647 31.38796,6.9390558 30.345976,5.6310899 29.150635,4.3907371 27.766072,3.445776 26.353627,2.6005451 24.944232,3.8798778 23.879146,4.7066588 23.477217,4.9925958 22.785848,5.723154 22.334688,5.1089943 21.701614,3.6016212 22.292618,1.3400771 20.559951,0.44752218 19.446991,-0.06958303 18.164267,0.06950884 16.97369,0.04142115 Z M 17.560249,11.8534 c 3.186612,-0.04984 5.974071,3.0271 5.555068,6.201586 -0.222278,2.859642 -2.864919,5.24662 -5.750298,5.089587 -3.244153,0.03317 -5.989355,-3.217026 -5.469329,-6.413906 0.347614,-2.710467 2.914733,-4.972077 5.664559,-4.877267 z"
     id="path324" />
</svg>
